<svg width="32" height="32" viewBox="0 0 32 32" fill="none" xmlns="http://www.w3.org/2000/svg">
  <path d="M16 4C17.5 4 19 4.5 20.5 5.5C21.5 6 22.5 6.5 23.5 7.5C24.5 8.5 25 9.5 25.5 10.5C26 11.5 26 12.5 26 13.5V16C26 17 25.5 18 25 18.5C24.5 19 23.5 19.5 22.5 19.5H9.5C8.5 19.5 7.5 19 7 18.5C6.5 18 6 17 6 16V13.5C6 12.5 6 11.5 6.5 10.5C7 9.5 7.5 8.5 8.5 7.5C9.5 6.5 10.5 6 11.5 5.5C13 4.5 14.5 4 16 4Z" stroke="#6366f1" stroke-width="2" stroke-linecap="round" stroke-linejoin="round"/>
  <path d="M8 20H24L23 28H9L8 20Z" stroke="#6366f1" stroke-width="2" stroke-linecap="round" stroke-linejoin="round"/>
  <path d="M12 12V16" stroke="#6366f1" stroke-width="2" stroke-linecap="round"/>
  <path d="M16 10V16" stroke="#6366f1" stroke-width="2" stroke-linecap="round"/>
  <path d="M20 12V16" stroke="#6366f1" stroke-width="2" stroke-linecap="round"/>
</svg>